<svg version="1.1" viewBox="0 0 329 158" xmlns="http://www.w3.org/2000/svg" role="img">
<path id="logo" d="m3.8 155 47-100c0 0.14-22 84-17 90m-15-26c1.4-1.8 17-11 19-11m6.6 31c1.8-17 10-41 9.6-38-0.09 7.4 5.6 35 5.9 34 0.91-18 12-40 11-40m12-3.4c-0.51 9.9-5.1 32-7.7 39 6.9-4.2 22-15 22-32-0.09-6.3-11-11-14-6.6zm20 31c-0.02 1.1 7.4-19 8.5-39 3.6-5.3 11-2.7 11 4.6 0.58 7.6-11 18-14 22 6.2-4.9 9.1 2.7 9.1 9.3m35-49-9.3 6.3c-0.82 4.5-13 34-13 35 2.3 6.7 9 0.67 19-7.7m-12-10 11-4.7m-1.7-29 11-11m43 49c10-36 16-88 16-87m-20 18c31-40 73-33 12 37 6.2-10 20-0.75 14 25m28-43c-15 5-24 41-5.2 36 20-5.9 17-40 5.2-36zm-4.1-12 14-4.8m23 7.9c-18 9.5-3.5 23-2.6 26 2.5 6.2-10 14-17 12m28-41 21-7.8m-17 42c0-6.4 7.4-38 7.6-39m16 32c0-10 5.8-37 5.8-37" fill="none" stroke-linecap="round" stroke-linejoin="round" stroke-width="7.5"/>
</svg>
