<?xml version="1.0" encoding="UTF-8" standalone="no"?>
<svg
   version="1.1"
   viewBox="0 0 1024 1024"
   role="img"
   id="svg1"
   sodipodi:docname="touch-icon.svg"
   inkscape:version="1.4 (e7c3feb1, 2024-10-09)"
   width="1024"
   height="1024"
   inkscape:export-filename="favicon-small.png"
   inkscape:export-xdpi="48"
   inkscape:export-ydpi="48"
   xmlns:inkscape="http://www.inkscape.org/namespaces/inkscape"
   xmlns:sodipodi="http://sodipodi.sourceforge.net/DTD/sodipodi-0.dtd"
   xmlns="http://www.w3.org/2000/svg"
   xmlns:svg="http://www.w3.org/2000/svg">
  <defs
     id="defs1" />
  <sodipodi:namedview
     id="namedview1"
     pagecolor="#ffffff"
     bordercolor="#000000"
     borderopacity="0.25"
     inkscape:showpageshadow="2"
     inkscape:pageopacity="0.0"
     inkscape:pagecheckerboard="0"
     inkscape:deskcolor="#d1d1d1"
     showgrid="false"
     inkscape:zoom="0.57080293"
     inkscape:cx="373.15856"
     inkscape:cy="359.14322"
     inkscape:window-width="1680"
     inkscape:window-height="997"
     inkscape:window-x="0"
     inkscape:window-y="25"
     inkscape:window-maximized="0"
     inkscape:current-layer="svg1">
    <inkscape:grid
       id="grid1"
       units="px"
       originx="0"
       originy="0"
       spacingx="1"
       spacingy="1"
       empcolor="#0099e5"
       empopacity="0.30196078"
       color="#0099e5"
       opacity="0.14901961"
       empspacing="5"
       enabled="true"
       visible="false" />
  </sodipodi:namedview>
  <path
     style="stroke-width:27.2581;stroke-linecap:round;stroke-linejoin:round"
     d="m 775.14347,111.64244 c -61.9143,1.13721 -131.71804,27.6967 -211.99577,81.66789 -24.99193,16.78931 -31.64201,50.65944 -14.85355,75.65194 15.56188,15.29994 38.74848,19.84509 58.93506,11.55276 -1.38635,26.98529 -2.75858,54.35152 -5.16413,91.72993 -6.45301,100.26851 -16.91726,229.58645 -32.42226,340.8862 -4.1383,29.81251 16.66671,57.338 46.47722,61.49048 29.81363,4.17193 57.36562,-16.61123 61.54371,-46.42399 8.21053,-58.93767 11.68553,-128.38708 17.19461,-189.2619 28.33613,26.83916 66.93308,85.53579 113.29301,128.1441 22.16873,20.3789 56.66121,18.92482 77.03611,-3.24756 20.34311,-22.16173 18.88979,-56.6132 -3.24754,-76.98289 -37.8649,-34.80073 -74.40403,-78.51001 -110.94908,-113.3448 40.93191,-32.65689 75.83623,-65.96051 99.55604,-99.6625 40.26814,-57.21445 59.45252,-116.5291 42.85701,-172.2798 -16.59554,-55.75071 -76.34609,-91.05704 -138.26044,-89.91986 z m -335.24292,60.31925 c -20.15525,-3.94346 -40.81647,3.77364 -53.45145,19.96445 -113.55564,145.51507 -245.27606,484.55468 -280.67346,654.8337 -6.126423,29.49304 12.82751,58.36501 42.32462,64.47183 29.47604,6.12899 58.34009,-12.79591 64.47183,-42.27138 7.51694,-36.16015 41.07398,-138.54789 39.44975,-133.46891 20.35789,-7.71173 52.69532,-18.60555 76.82316,-27.04482 23.56157,-8.37863 50.3971,-23.7635 76.82319,-35.24391 0.0436,1.12331 0.11722,2.82997 0.16083,3.93964 1.84973,48.46391 2.38672,89.10718 2.34257,90.07959 -1.38391,30.0998 21.91271,55.614 52.01402,56.96521 30.07944,1.35364 55.56038,-21.9345 56.91195,-52.01405 0.87336,-19.21209 -0.41377,-50.04939 -2.28914,-99.18333 -0.90742,-23.77639 -2.58324,-55.65247 -3.8864,-84.06363 -0.0171,-0.81692 -0.0518,-1.63358 -0.10631,-2.44887 -1.36236,-29.56917 -2.36464,-55.82678 -4.04611,-87.20466 -3.34969,-62.50642 -7.21817,-125.3885 -11.23332,-176.48566 -4.01517,-51.0972 -5.22568,-82.47865 -13.62906,-112.17354 -5.60004,-19.77021 -21.83969,-34.71284 -42.00667,-38.65166 z m 337.21276,48.66 c 29.80005,-0.54734 29.25971,3.60712 31.78338,12.08516 2.52355,8.47804 0.77032,38.16515 -27.52429,78.3671 -15.57668,22.1319 -41.43529,56.43151 -72.13249,81.78472 2.75256,-38.61952 6.81592,-77.58196 9.47879,-137.13332 20.72509,-24.98477 44.33961,-34.8455 58.39448,-35.10366 z M 391.18732,400.0887 c 2.28423,34.8036 4.70277,67.62066 6.70803,105.0396 0.99819,18.62841 1.50302,33.52416 2.39572,51.74782 -30.1001,16.13324 -63.60903,31.71101 -97.32,44.02824 28.10549,-70.42484 57.77948,-139.21474 88.21625,-200.81566 z"
     id="logo"
     sodipodi:nodetypes="scccsccccccccssscccccsscccccsccssccsssccsscsccc" />
</svg>
