<?xml version="1.0" encoding="UTF-8" standalone="no"?>
<!DOCTYPE svg PUBLIC "-//W3C//DTD SVG 1.1//EN"
 "http://www.w3.org/Graphics/SVG/1.1/DTD/svg11.dtd">
<!-- Generated by graphviz version 6.0.1 (20220911.1526)
 -->
<!-- Title: G Pages: 1 -->
<svg width="459pt" height="653pt"
 viewBox="0.00 0.00 459.00 653.00" xmlns="http://www.w3.org/2000/svg" xmlns:xlink="http://www.w3.org/1999/xlink">
<g id="graph0" class="graph" transform="scale(1 1) rotate(0) translate(4 649)">
<title>G</title>
<polygon fill="white" stroke="none" points="-4,4 -4,-649 455,-649 455,4 -4,4"/>
<g id="clust1" class="cluster">
<title>cluster_0</title>
<polygon fill="none" stroke="black" points="8,-8 8,-637 423,-637 423,-8 8,-8"/>
<text text-anchor="middle" x="215.5" y="-621.8" font-family="Times,serif" font-size="14.00">main</text>
</g>
<!-- A_0 -->
<g id="node1" class="node">
<title>A_0</title>
<polygon fill="none" stroke="black" points="201.5,-569.5 201.5,-605.5 262.5,-605.5 262.5,-569.5 201.5,-569.5"/>
<text text-anchor="middle" x="222" y="-583.8" font-family="Times,serif" font-size="14.00">BB1</text>
<polyline fill="none" stroke="black" points="242.5,-569.5 242.5,-605.5"/>
<text text-anchor="middle" x="252.5" y="-583.8" font-family="Times,serif" font-size="14.00"> </text>
</g>
<!-- A_1 -->
<g id="node2" class="node">
<title>A_1</title>
<polygon fill="none" stroke="black" points="127.5,-402.5 127.5,-517.5 336.5,-517.5 336.5,-402.5 127.5,-402.5"/>
<text text-anchor="middle" x="148" y="-456.3" font-family="Times,serif" font-size="14.00">BB2</text>
<polyline fill="none" stroke="black" points="168.5,-402.5 168.5,-517.5"/>
<text text-anchor="middle" x="252.5" y="-502.3" font-family="Times,serif" font-size="14.00">11 = phi BB1, #0, BB6, (9)</text>
<polyline fill="none" stroke="black" points="168.5,-494.5 336.5,-494.5"/>
<text text-anchor="middle" x="252.5" y="-479.3" font-family="Times,serif" font-size="14.00">13 = phi BB1, #2, BB6, #3</text>
<polyline fill="none" stroke="black" points="168.5,-471.5 336.5,-471.5"/>
<text text-anchor="middle" x="252.5" y="-456.3" font-family="Times,serif" font-size="14.00">14 = phi BB1, #1, BB6, (6)</text>
<polyline fill="none" stroke="black" points="168.5,-448.5 336.5,-448.5"/>
<text text-anchor="middle" x="252.5" y="-433.3" font-family="Times,serif" font-size="14.00">15 = cmp (11), #20</text>
<polyline fill="none" stroke="black" points="168.5,-425.5 336.5,-425.5"/>
<text text-anchor="middle" x="252.5" y="-410.3" font-family="Times,serif" font-size="14.00">bge (15), BB7</text>
</g>
<!-- A_0&#45;&gt;A_1 -->
<g id="edge1" class="edge">
<title>A_0&#45;&gt;A_1</title>
<path fill="none" stroke="black" d="M203.65,-569.17C197.74,-564.1 192.3,-558.01 189,-551 186.16,-544.97 187.28,-542.44 189,-536 189.79,-533.05 190.72,-530.09 191.77,-527.15"/>
<polygon fill="black" stroke="black" points="195.03,-528.42 195.49,-517.84 188.53,-525.82 195.03,-528.42"/>
<text text-anchor="middle" x="221.5" y="-539.8" font-family="Times,serif" font-size="14.00">fall&#45;through</text>
</g>
<!-- A_0&#45;&gt;A_1 -->
<g id="edge2" class="edge">
<title>A_0&#45;&gt;A_1</title>
<path fill="none" stroke="blue" stroke-dasharray="1,5" d="M245.27,-569.36C248.82,-563.8 252.17,-557.42 254,-551 256.11,-543.58 256.66,-535.78 256.16,-528"/>
<polygon fill="blue" stroke="blue" points="259.6,-527.33 254.93,-517.82 252.65,-528.17 259.6,-527.33"/>
<text text-anchor="middle" x="268.5" y="-539.8" font-family="Times,serif" font-size="14.00">dom</text>
</g>
<!-- A_2 -->
<g id="node3" class="node">
<title>A_2</title>
<polygon fill="none" stroke="black" points="16.5,-281.5 16.5,-350.5 227.5,-350.5 227.5,-281.5 16.5,-281.5"/>
<text text-anchor="middle" x="37" y="-312.3" font-family="Times,serif" font-size="14.00">BB7</text>
<polyline fill="none" stroke="black" points="57.5,-281.5 57.5,-350.5"/>
<text text-anchor="middle" x="142.5" y="-335.3" font-family="Times,serif" font-size="14.00">17 = add (14), (13)</text>
<polyline fill="none" stroke="black" points="57.5,-327.5 227.5,-327.5"/>
<text text-anchor="middle" x="142.5" y="-312.3" font-family="Times,serif" font-size="14.00">18 = call outputNum(), (17)</text>
<polyline fill="none" stroke="black" points="57.5,-304.5 227.5,-304.5"/>
<text text-anchor="middle" x="142.5" y="-289.3" font-family="Times,serif" font-size="14.00">end</text>
</g>
<!-- A_1&#45;&gt;A_2 -->
<g id="edge4" class="edge">
<title>A_1&#45;&gt;A_2</title>
<path fill="none" stroke="black" d="M137.09,-402.49C132.05,-396.78 127.59,-390.62 124,-384 120.18,-376.95 118.27,-368.84 117.52,-360.76"/>
<polygon fill="black" stroke="black" points="121.01,-360.46 117.13,-350.6 114.02,-360.73 121.01,-360.46"/>
<text text-anchor="middle" x="142.5" y="-372.8" font-family="Times,serif" font-size="14.00">branch</text>
</g>
<!-- A_1&#45;&gt;A_2 -->
<g id="edge6" class="edge">
<title>A_1&#45;&gt;A_2</title>
<path fill="none" stroke="blue" stroke-dasharray="1,5" d="M188.21,-402.47C177,-387.99 165.13,-372.68 154.6,-359.08"/>
<polygon fill="blue" stroke="blue" points="157.11,-356.61 148.22,-350.85 151.58,-360.9 157.11,-356.61"/>
<text text-anchor="middle" x="185.5" y="-372.8" font-family="Times,serif" font-size="14.00">dom</text>
</g>
<!-- A_3 -->
<g id="node4" class="node">
<title>A_3</title>
<polygon fill="none" stroke="black" points="245.5,-298 245.5,-334 394.5,-334 394.5,-298 245.5,-298"/>
<text text-anchor="middle" x="266" y="-312.3" font-family="Times,serif" font-size="14.00">BB3</text>
<polyline fill="none" stroke="black" points="286.5,-298 286.5,-334"/>
<text text-anchor="middle" x="340.5" y="-312.3" font-family="Times,serif" font-size="14.00">1 = mul (14), #2</text>
</g>
<!-- A_1&#45;&gt;A_3 -->
<g id="edge3" class="edge">
<title>A_1&#45;&gt;A_3</title>
<path fill="none" stroke="black" d="M224.06,-402.41C224.72,-390.78 227.24,-379.03 233,-369 240.13,-356.6 251.5,-346.83 263.7,-339.28"/>
<polygon fill="black" stroke="black" points="265.72,-342.15 272.68,-334.16 262.26,-336.07 265.72,-342.15"/>
<text text-anchor="middle" x="265.5" y="-372.8" font-family="Times,serif" font-size="14.00">fall&#45;through</text>
</g>
<!-- A_1&#45;&gt;A_3 -->
<g id="edge5" class="edge">
<title>A_1&#45;&gt;A_3</title>
<path fill="none" stroke="blue" stroke-dasharray="1,5" d="M285.99,-402.22C290.38,-396.29 294.47,-390.17 298,-384 305.07,-371.63 310.26,-356.65 313.82,-344"/>
<polygon fill="blue" stroke="blue" points="317.28,-344.59 316.43,-334.03 310.51,-342.82 317.28,-344.59"/>
<text text-anchor="middle" x="316.5" y="-372.8" font-family="Times,serif" font-size="14.00">dom</text>
</g>
<!-- A_4 -->
<g id="node5" class="node">
<title>A_4</title>
<polygon fill="none" stroke="black" points="147.5,-137.5 147.5,-229.5 352.5,-229.5 352.5,-137.5 147.5,-137.5"/>
<text text-anchor="middle" x="168" y="-179.8" font-family="Times,serif" font-size="14.00">BB4</text>
<polyline fill="none" stroke="black" points="188.5,-137.5 188.5,-229.5"/>
<text text-anchor="middle" x="270.5" y="-214.3" font-family="Times,serif" font-size="14.00">5 = phi BB3, #0, BB5, (3)</text>
<polyline fill="none" stroke="black" points="188.5,-206.5 352.5,-206.5"/>
<text text-anchor="middle" x="270.5" y="-191.3" font-family="Times,serif" font-size="14.00">6 = phi BB3, (1), BB5, (2)</text>
<polyline fill="none" stroke="black" points="188.5,-183.5 352.5,-183.5"/>
<text text-anchor="middle" x="270.5" y="-168.3" font-family="Times,serif" font-size="14.00">7 = cmp (5), #10</text>
<polyline fill="none" stroke="black" points="188.5,-160.5 352.5,-160.5"/>
<text text-anchor="middle" x="270.5" y="-145.3" font-family="Times,serif" font-size="14.00">bge (7), BB6</text>
</g>
<!-- A_3&#45;&gt;A_4 -->
<g id="edge7" class="edge">
<title>A_3&#45;&gt;A_4</title>
<path fill="none" stroke="black" d="M310.85,-297.94C302.74,-282.83 290.46,-259.92 279.04,-238.64"/>
<polygon fill="black" stroke="black" points="282.03,-236.8 274.22,-229.64 275.86,-240.11 282.03,-236.8"/>
<text text-anchor="middle" x="323.5" y="-251.8" font-family="Times,serif" font-size="14.00">fall&#45;through</text>
</g>
<!-- A_3&#45;&gt;A_4 -->
<g id="edge8" class="edge">
<title>A_3&#45;&gt;A_4</title>
<path fill="none" stroke="blue" stroke-dasharray="1,5" d="M289.43,-297.87C276.85,-289.14 263.5,-277.33 256,-263 252.3,-255.93 249.97,-248.01 248.59,-239.99"/>
<polygon fill="blue" stroke="blue" points="252.03,-239.31 247.31,-229.83 245.09,-240.19 252.03,-239.31"/>
<text text-anchor="middle" x="268.5" y="-251.8" font-family="Times,serif" font-size="14.00">dom</text>
</g>
<!-- A_5 -->
<g id="node6" class="node">
<title>A_5</title>
<polygon fill="none" stroke="black" points="267.5,-28 267.5,-74 414.5,-74 414.5,-28 267.5,-28"/>
<text text-anchor="middle" x="288" y="-47.3" font-family="Times,serif" font-size="14.00">BB6</text>
<polyline fill="none" stroke="black" points="308.5,-28 308.5,-74"/>
<text text-anchor="middle" x="361.5" y="-58.8" font-family="Times,serif" font-size="14.00">9 = add (11), #1</text>
<polyline fill="none" stroke="black" points="308.5,-51 414.5,-51"/>
<text text-anchor="middle" x="361.5" y="-35.8" font-family="Times,serif" font-size="14.00">bra BB2</text>
</g>
<!-- A_4&#45;&gt;A_5 -->
<g id="edge10" class="edge">
<title>A_4&#45;&gt;A_5</title>
<path fill="none" stroke="black" d="M305.82,-137.25C311.07,-131.48 315.93,-125.36 320,-119 326.75,-108.44 331.47,-95.54 334.7,-83.9"/>
<polygon fill="black" stroke="black" points="338.12,-84.63 337.16,-74.08 331.33,-82.93 338.12,-84.63"/>
<text text-anchor="middle" x="345.5" y="-107.8" font-family="Times,serif" font-size="14.00">branch</text>
</g>
<!-- A_4&#45;&gt;A_5 -->
<g id="edge12" class="edge">
<title>A_4&#45;&gt;A_5</title>
<path fill="none" stroke="blue" stroke-dasharray="1,5" d="M270.87,-137.19C276.79,-125.97 283.64,-114.24 291,-104 296.59,-96.23 303.29,-88.47 309.95,-81.41"/>
<polygon fill="blue" stroke="blue" points="312.64,-83.66 317.1,-74.04 307.62,-78.78 312.64,-83.66"/>
<text text-anchor="middle" x="303.5" y="-107.8" font-family="Times,serif" font-size="14.00">dom</text>
</g>
<!-- A_6 -->
<g id="node7" class="node">
<title>A_6</title>
<polygon fill="none" stroke="black" points="107,-16.5 107,-85.5 249,-85.5 249,-16.5 107,-16.5"/>
<text text-anchor="middle" x="127.5" y="-47.3" font-family="Times,serif" font-size="14.00">BB5</text>
<polyline fill="none" stroke="black" points="148,-16.5 148,-85.5"/>
<text text-anchor="middle" x="198.5" y="-70.3" font-family="Times,serif" font-size="14.00">2 = add (6), (5)</text>
<polyline fill="none" stroke="black" points="148,-62.5 249,-62.5"/>
<text text-anchor="middle" x="198.5" y="-47.3" font-family="Times,serif" font-size="14.00">3 = add (5), #1</text>
<polyline fill="none" stroke="black" points="148,-39.5 249,-39.5"/>
<text text-anchor="middle" x="198.5" y="-24.3" font-family="Times,serif" font-size="14.00">bra BB4</text>
</g>
<!-- A_4&#45;&gt;A_6 -->
<g id="edge9" class="edge">
<title>A_4&#45;&gt;A_6</title>
<path fill="none" stroke="black" d="M147.48,-154.72C131.44,-145.88 116.92,-134.26 107,-119 101.11,-109.94 102.56,-101.24 108.05,-93.28"/>
<polygon fill="black" stroke="black" points="110.83,-95.41 114.77,-85.58 105.56,-90.81 110.83,-95.41"/>
<text text-anchor="middle" x="139.5" y="-107.8" font-family="Times,serif" font-size="14.00">fall&#45;through</text>
</g>
<!-- A_4&#45;&gt;A_6 -->
<g id="edge11" class="edge">
<title>A_4&#45;&gt;A_6</title>
<path fill="none" stroke="blue" stroke-dasharray="1,5" d="M206.49,-137.15C202.2,-131.32 198.24,-125.21 195,-119 191.21,-111.74 188.23,-103.59 185.9,-95.54"/>
<polygon fill="blue" stroke="blue" points="189.28,-94.63 183.37,-85.83 182.51,-96.39 189.28,-94.63"/>
<text text-anchor="middle" x="207.5" y="-107.8" font-family="Times,serif" font-size="14.00">dom</text>
</g>
<!-- A_5&#45;&gt;A_1 -->
<g id="edge13" class="edge">
<title>A_5&#45;&gt;A_1</title>
<path fill="none" stroke="black" d="M355.38,-74.16C386.99,-125.93 455.72,-257.45 404,-351 390.48,-375.46 368.84,-395.13 345.41,-410.62"/>
<polygon fill="black" stroke="black" points="343.27,-407.83 336.7,-416.15 347.02,-413.74 343.27,-407.83"/>
<text text-anchor="middle" x="436.5" y="-251.8" font-family="Times,serif" font-size="14.00">jump</text>
</g>
<!-- A_6&#45;&gt;A_4 -->
<g id="edge14" class="edge">
<title>A_6&#45;&gt;A_4</title>
<path fill="none" stroke="black" d="M207.62,-85.58C212.1,-91.5 216.41,-97.76 220,-104 224.34,-111.53 228.28,-119.81 231.78,-128.08"/>
<polygon fill="black" stroke="black" points="228.54,-129.41 235.53,-137.37 235.03,-126.79 228.54,-129.41"/>
<text text-anchor="middle" x="241.5" y="-107.8" font-family="Times,serif" font-size="14.00">jump</text>
</g>
</g>
</svg>
