<?xml version="1.0" encoding="UTF-8" standalone="no"?>
<!DOCTYPE svg PUBLIC "-//W3C//DTD SVG 1.1//EN"
 "http://www.w3.org/Graphics/SVG/1.1/DTD/svg11.dtd">
<!-- Generated by graphviz version 6.0.1 (20220911.1526)
 -->
<!-- Title: G Pages: 1 -->
<svg width="1214pt" height="517pt"
 viewBox="0.00 0.00 1214.00 517.00" xmlns="http://www.w3.org/2000/svg" xmlns:xlink="http://www.w3.org/1999/xlink">
<g id="graph0" class="graph" transform="scale(1 1) rotate(0) translate(4 513)">
<title>G</title>
<polygon fill="white" stroke="none" points="-4,4 -4,-513 1210,-513 1210,4 -4,4"/>
<g id="clust1" class="cluster">
<title>cluster_0</title>
<polygon fill="none" stroke="black" points="8,-8 8,-501 1198,-501 1198,-8 8,-8"/>
</g>
<!-- A_0 -->
<g id="node1" class="node">
<title>A_0</title>
<polygon fill="none" stroke="black" points="606,-456.5 606,-492.5 694,-492.5 694,-456.5 606,-456.5"/>
<text text-anchor="middle" x="650" y="-470.8" font-family="Times,serif" font-size="14.00">Computation</text>
</g>
<!-- A_1 -->
<g id="node2" class="node">
<title>A_1</title>
<polygon fill="none" stroke="black" points="149.5,-368.5 149.5,-404.5 220.5,-404.5 220.5,-368.5 149.5,-368.5"/>
<text text-anchor="middle" x="185" y="-382.8" font-family="Times,serif" font-size="14.00">Declare &#39;j&#39;</text>
</g>
<!-- A_0&#45;&gt;A_1 -->
<g id="edge8" class="edge">
<title>A_0&#45;&gt;A_1</title>
<path fill="none" stroke="blue" d="M605.84,-472.1C502.21,-468.5 249.71,-457.78 217,-438 207.67,-432.36 200.62,-422.85 195.53,-413.6"/>
<polygon fill="blue" stroke="blue" points="198.65,-412.01 191.1,-404.58 192.37,-415.1 198.65,-412.01"/>
<text text-anchor="middle" x="273" y="-426.8" font-family="Times,serif" font-size="14.00">Variable Declaration</text>
</g>
<!-- A_2 -->
<g id="node3" class="node">
<title>A_2</title>
<polygon fill="none" stroke="black" points="289,-368.5 289,-404.5 343,-404.5 343,-368.5 289,-368.5"/>
<text text-anchor="middle" x="316" y="-382.8" font-family="Times,serif" font-size="14.00">while</text>
</g>
<!-- A_0&#45;&gt;A_2 -->
<g id="edge4" class="edge">
<title>A_0&#45;&gt;A_2</title>
<path fill="none" stroke="black" d="M605.89,-472.82C532.91,-470.95 390.93,-463.98 349,-438 339.79,-432.29 332.63,-422.94 327.37,-413.83"/>
<polygon fill="black" stroke="black" points="330.46,-412.2 322.74,-404.95 324.26,-415.43 330.46,-412.2"/>
<text text-anchor="middle" x="376.5" y="-426.8" font-family="Times,serif" font-size="14.00">Statement</text>
</g>
<!-- A_3 -->
<g id="node4" class="node">
<title>A_3</title>
<polygon fill="none" stroke="black" points="361,-368.5 361,-404.5 445,-404.5 445,-368.5 361,-368.5"/>
<text text-anchor="middle" x="403" y="-382.8" font-family="Times,serif" font-size="14.00">Declare &#39;out&#39;</text>
</g>
<!-- A_0&#45;&gt;A_3 -->
<g id="edge10" class="edge">
<title>A_0&#45;&gt;A_3</title>
<path fill="none" stroke="blue" d="M605.87,-472.25C546.54,-469.66 445.3,-461.8 418,-438 411.16,-432.04 407.37,-423.12 405.29,-414.42"/>
<polygon fill="blue" stroke="blue" points="408.73,-413.76 403.56,-404.51 401.83,-414.96 408.73,-413.76"/>
<text text-anchor="middle" x="474" y="-426.8" font-family="Times,serif" font-size="14.00">Variable Declaration</text>
</g>
<!-- A_5 -->
<g id="node6" class="node">
<title>A_5</title>
<polygon fill="none" stroke="black" points="468,-368.5 468,-404.5 550,-404.5 550,-368.5 468,-368.5"/>
<text text-anchor="middle" x="509" y="-382.8" font-family="Times,serif" font-size="14.00">Assignment</text>
</g>
<!-- A_0&#45;&gt;A_5 -->
<g id="edge3" class="edge">
<title>A_0&#45;&gt;A_5</title>
<path fill="none" stroke="black" d="M605.67,-463.44C587.34,-457.89 566.55,-449.69 550,-438 540.49,-431.28 532,-421.79 525.24,-412.85"/>
<polygon fill="black" stroke="black" points="527.97,-410.65 519.31,-404.54 522.27,-414.72 527.97,-410.65"/>
<text text-anchor="middle" x="577.5" y="-426.8" font-family="Times,serif" font-size="14.00">Statement</text>
</g>
<!-- A_8 -->
<g id="node9" class="node">
<title>A_8</title>
<polygon fill="none" stroke="black" points="568,-368.5 568,-404.5 678,-404.5 678,-368.5 568,-368.5"/>
<text text-anchor="middle" x="623" y="-382.8" font-family="Times,serif" font-size="14.00">Call &#39;outputNum&#39;</text>
</g>
<!-- A_0&#45;&gt;A_8 -->
<g id="edge6" class="edge">
<title>A_0&#45;&gt;A_8</title>
<path fill="none" stroke="black" d="M625.68,-456.38C620.15,-451.17 615.02,-444.96 612,-438 608.82,-430.67 609.18,-422.34 611,-414.58"/>
<polygon fill="black" stroke="black" points="614.4,-415.44 614.07,-404.85 607.73,-413.34 614.4,-415.44"/>
<text text-anchor="middle" x="639.5" y="-426.8" font-family="Times,serif" font-size="14.00">Statement</text>
</g>
<!-- A_9 -->
<g id="node10" class="node">
<title>A_9</title>
<polygon fill="none" stroke="black" points="696,-368.5 696,-404.5 770,-404.5 770,-368.5 696,-368.5"/>
<text text-anchor="middle" x="733" y="-382.8" font-family="Times,serif" font-size="14.00">Declare &#39;k&#39;</text>
</g>
<!-- A_0&#45;&gt;A_9 -->
<g id="edge9" class="edge">
<title>A_0&#45;&gt;A_9</title>
<path fill="none" stroke="blue" d="M662.14,-456.39C669.67,-446.25 679.82,-433.38 690,-423 693.9,-419.02 698.21,-415.04 702.56,-411.26"/>
<polygon fill="blue" stroke="blue" points="704.95,-413.83 710.34,-404.71 700.44,-408.47 704.95,-413.83"/>
<text text-anchor="middle" x="746" y="-426.8" font-family="Times,serif" font-size="14.00">Variable Declaration</text>
</g>
<!-- A_12 -->
<g id="node13" class="node">
<title>A_12</title>
<polygon fill="none" stroke="black" points="788.5,-368.5 788.5,-404.5 859.5,-404.5 859.5,-368.5 788.5,-368.5"/>
<text text-anchor="middle" x="824" y="-382.8" font-family="Times,serif" font-size="14.00">Declare &#39;i&#39;</text>
</g>
<!-- A_0&#45;&gt;A_12 -->
<g id="edge7" class="edge">
<title>A_0&#45;&gt;A_12</title>
<path fill="none" stroke="blue" d="M694.27,-473.43C727.37,-471.15 771.92,-463.07 802,-438 809.18,-432.02 814.09,-423.24 817.41,-414.67"/>
<polygon fill="blue" stroke="blue" points="820.82,-415.49 820.62,-404.9 814.17,-413.31 820.82,-415.49"/>
<text text-anchor="middle" x="869" y="-426.8" font-family="Times,serif" font-size="14.00">Variable Declaration</text>
</g>
<!-- A_17 -->
<g id="node18" class="node">
<title>A_17</title>
<polygon fill="none" stroke="black" points="878,-368.5 878,-404.5 960,-404.5 960,-368.5 878,-368.5"/>
<text text-anchor="middle" x="919" y="-382.8" font-family="Times,serif" font-size="14.00">Assignment</text>
</g>
<!-- A_0&#45;&gt;A_17 -->
<g id="edge1" class="edge">
<title>A_0&#45;&gt;A_17</title>
<path fill="none" stroke="black" d="M694.19,-471.04C768.95,-466.41 913.75,-455.31 929,-438 934.69,-431.54 934.68,-422.79 932.46,-414.39"/>
<polygon fill="black" stroke="black" points="935.71,-413.09 929.04,-404.85 929.12,-415.45 935.71,-413.09"/>
<text text-anchor="middle" x="960.5" y="-426.8" font-family="Times,serif" font-size="14.00">Statement</text>
</g>
<!-- A_18 -->
<g id="node19" class="node">
<title>A_18</title>
<polygon fill="none" stroke="black" points="978,-368.5 978,-404.5 1060,-404.5 1060,-368.5 978,-368.5"/>
<text text-anchor="middle" x="1019" y="-382.8" font-family="Times,serif" font-size="14.00">Assignment</text>
</g>
<!-- A_0&#45;&gt;A_18 -->
<g id="edge5" class="edge">
<title>A_0&#45;&gt;A_18</title>
<path fill="none" stroke="black" d="M694.2,-473.95C775.4,-473.96 944.37,-470 992,-438 1000.36,-432.38 1006.34,-423.3 1010.5,-414.37"/>
<polygon fill="black" stroke="black" points="1013.82,-415.5 1014.34,-404.92 1007.33,-412.87 1013.82,-415.5"/>
<text text-anchor="middle" x="1032.5" y="-426.8" font-family="Times,serif" font-size="14.00">Statement</text>
</g>
<!-- A_21 -->
<g id="node22" class="node">
<title>A_21</title>
<polygon fill="none" stroke="black" points="1078,-368.5 1078,-404.5 1160,-404.5 1160,-368.5 1078,-368.5"/>
<text text-anchor="middle" x="1119" y="-382.8" font-family="Times,serif" font-size="14.00">Assignment</text>
</g>
<!-- A_0&#45;&gt;A_21 -->
<g id="edge2" class="edge">
<title>A_0&#45;&gt;A_21</title>
<path fill="none" stroke="black" d="M694.06,-473.28C786.72,-472.26 998.62,-466.74 1064,-438 1077.11,-432.24 1089.15,-422.04 1098.6,-412.32"/>
<polygon fill="black" stroke="black" points="1101.4,-414.44 1105.59,-404.71 1096.24,-409.7 1101.4,-414.44"/>
<text text-anchor="middle" x="1113.5" y="-426.8" font-family="Times,serif" font-size="14.00">Statement</text>
</g>
<!-- A_4 -->
<g id="node5" class="node">
<title>A_4</title>
<polygon fill="none" stroke="black" points="16,-280.5 16,-316.5 98,-316.5 98,-280.5 16,-280.5"/>
<text text-anchor="middle" x="57" y="-294.8" font-family="Times,serif" font-size="14.00">Assignment</text>
</g>
<!-- A_2&#45;&gt;A_4 -->
<g id="edge16" class="edge">
<title>A_2&#45;&gt;A_4</title>
<path fill="none" stroke="blue" d="M288.69,-380.02C250.8,-372.29 184.3,-358.21 161,-350 139.04,-342.27 115.62,-331.17 96.58,-321.35"/>
<polygon fill="blue" stroke="blue" points="98.09,-318.19 87.61,-316.65 94.84,-324.39 98.09,-318.19"/>
<text text-anchor="middle" x="175.5" y="-338.8" font-family="Times,serif" font-size="14.00">Loop</text>
</g>
<!-- A_7 -->
<g id="node8" class="node">
<title>A_7</title>
<polygon fill="none" stroke="black" points="116,-280.5 116,-316.5 198,-316.5 198,-280.5 116,-280.5"/>
<text text-anchor="middle" x="157" y="-294.8" font-family="Times,serif" font-size="14.00">Assignment</text>
</g>
<!-- A_2&#45;&gt;A_7 -->
<g id="edge13" class="edge">
<title>A_2&#45;&gt;A_7</title>
<path fill="none" stroke="blue" d="M288.64,-378.91C267.6,-373.15 238.29,-363.56 215,-350 202.8,-342.9 190.78,-333.05 180.88,-323.93"/>
<polygon fill="blue" stroke="blue" points="183.09,-321.2 173.43,-316.84 178.26,-326.27 183.09,-321.2"/>
<text text-anchor="middle" x="229.5" y="-338.8" font-family="Times,serif" font-size="14.00">Loop</text>
</g>
<!-- A_14 -->
<g id="node15" class="node">
<title>A_14</title>
<polygon fill="none" stroke="black" points="216,-280.5 216,-316.5 270,-316.5 270,-280.5 216,-280.5"/>
<text text-anchor="middle" x="243" y="-294.8" font-family="Times,serif" font-size="14.00">&lt;</text>
</g>
<!-- A_2&#45;&gt;A_14 -->
<g id="edge11" class="edge">
<title>A_2&#45;&gt;A_14</title>
<path fill="none" stroke="black" d="M288.75,-375.03C277.09,-369.28 264.29,-361.03 256,-350 250.95,-343.28 247.86,-334.8 245.96,-326.71"/>
<polygon fill="black" stroke="black" points="249.4,-326.04 244.14,-316.84 242.51,-327.31 249.4,-326.04"/>
<text text-anchor="middle" x="283.5" y="-338.8" font-family="Times,serif" font-size="14.00">Condition</text>
</g>
<!-- A_16 -->
<g id="node17" class="node">
<title>A_16</title>
<polygon fill="none" stroke="black" points="288,-280.5 288,-316.5 342,-316.5 342,-280.5 288,-280.5"/>
<text text-anchor="middle" x="315" y="-294.8" font-family="Times,serif" font-size="14.00">while</text>
</g>
<!-- A_2&#45;&gt;A_16 -->
<g id="edge14" class="edge">
<title>A_2&#45;&gt;A_16</title>
<path fill="none" stroke="blue" d="M315.8,-368.1C315.66,-356.25 315.47,-340.32 315.32,-326.79"/>
<polygon fill="blue" stroke="blue" points="318.81,-326.54 315.2,-316.58 311.82,-326.62 318.81,-326.54"/>
<text text-anchor="middle" x="329.5" y="-338.8" font-family="Times,serif" font-size="14.00">Loop</text>
</g>
<!-- A_19 -->
<g id="node20" class="node">
<title>A_19</title>
<polygon fill="none" stroke="black" points="360,-280.5 360,-316.5 442,-316.5 442,-280.5 360,-280.5"/>
<text text-anchor="middle" x="401" y="-294.8" font-family="Times,serif" font-size="14.00">Assignment</text>
</g>
<!-- A_2&#45;&gt;A_19 -->
<g id="edge12" class="edge">
<title>A_2&#45;&gt;A_19</title>
<path fill="none" stroke="blue" d="M333.2,-368.1C345.73,-355.42 362.86,-338.09 376.77,-324.02"/>
<polygon fill="blue" stroke="blue" points="379.57,-326.16 384.11,-316.58 374.6,-321.24 379.57,-326.16"/>
<text text-anchor="middle" x="377.5" y="-338.8" font-family="Times,serif" font-size="14.00">Loop</text>
</g>
<!-- A_24 -->
<g id="node25" class="node">
<title>A_24</title>
<polygon fill="none" stroke="black" points="460,-280.5 460,-316.5 542,-316.5 542,-280.5 460,-280.5"/>
<text text-anchor="middle" x="501" y="-294.8" font-family="Times,serif" font-size="14.00">Assignment</text>
</g>
<!-- A_2&#45;&gt;A_24 -->
<g id="edge15" class="edge">
<title>A_2&#45;&gt;A_24</title>
<path fill="none" stroke="blue" d="M343.04,-372.13C346.05,-370.71 349.08,-369.3 352,-368 371.29,-359.38 376.69,-358.58 396,-350 416.4,-340.93 438.72,-330.3 457.52,-321.13"/>
<polygon fill="blue" stroke="blue" points="459.28,-324.17 466.72,-316.63 456.2,-317.88 459.28,-324.17"/>
<text text-anchor="middle" x="442.5" y="-338.8" font-family="Times,serif" font-size="14.00">Loop</text>
</g>
<!-- A_10 -->
<g id="node11" class="node">
<title>A_10</title>
<polygon fill="none" stroke="black" points="16,-192.5 16,-228.5 70,-228.5 70,-192.5 16,-192.5"/>
<text text-anchor="middle" x="43" y="-206.8" font-family="Times,serif" font-size="14.00">k</text>
</g>
<!-- A_4&#45;&gt;A_10 -->
<g id="edge17" class="edge">
<title>A_4&#45;&gt;A_10</title>
<path fill="none" stroke="black" d="M54.17,-280.1C52.24,-268.25 49.64,-252.32 47.44,-238.79"/>
<polygon fill="black" stroke="black" points="50.84,-237.89 45.78,-228.58 43.93,-239.02 50.84,-237.89"/>
<text text-anchor="middle" x="64" y="-250.8" font-family="Times,serif" font-size="14.00">LHS</text>
</g>
<!-- A_13 -->
<g id="node14" class="node">
<title>A_13</title>
<polygon fill="none" stroke="black" points="88,-192.5 88,-228.5 142,-228.5 142,-192.5 88,-192.5"/>
<text text-anchor="middle" x="115" y="-206.8" font-family="Times,serif" font-size="14.00">3</text>
</g>
<!-- A_4&#45;&gt;A_13 -->
<g id="edge18" class="edge">
<title>A_4&#45;&gt;A_13</title>
<path fill="none" stroke="black" d="M68.73,-280.17C72.63,-274.39 77.01,-267.92 81,-262 86.41,-253.98 92.3,-245.24 97.63,-237.31"/>
<polygon fill="black" stroke="black" points="100.68,-239.05 103.36,-228.8 94.88,-235.14 100.68,-239.05"/>
<text text-anchor="middle" x="103.5" y="-250.8" font-family="Times,serif" font-size="14.00">RHS</text>
</g>
<!-- A_6 -->
<g id="node7" class="node">
<title>A_6</title>
<polygon fill="none" stroke="black" points="560,-280.5 560,-316.5 614,-316.5 614,-280.5 560,-280.5"/>
<text text-anchor="middle" x="587" y="-294.8" font-family="Times,serif" font-size="14.00">1</text>
</g>
<!-- A_5&#45;&gt;A_6 -->
<g id="edge20" class="edge">
<title>A_5&#45;&gt;A_6</title>
<path fill="none" stroke="black" d="M524.78,-368.1C536.28,-355.42 552,-338.09 564.76,-324.02"/>
<polygon fill="black" stroke="black" points="567.38,-326.34 571.51,-316.58 562.19,-321.64 567.38,-326.34"/>
<text text-anchor="middle" x="565.5" y="-338.8" font-family="Times,serif" font-size="14.00">RHS</text>
</g>
<!-- A_39 -->
<g id="node40" class="node">
<title>A_39</title>
<polygon fill="none" stroke="black" points="632,-280.5 632,-316.5 686,-316.5 686,-280.5 632,-280.5"/>
<text text-anchor="middle" x="659" y="-294.8" font-family="Times,serif" font-size="14.00">out</text>
</g>
<!-- A_5&#45;&gt;A_39 -->
<g id="edge19" class="edge">
<title>A_5&#45;&gt;A_39</title>
<path fill="none" stroke="black" d="M547.17,-368.44C558.84,-362.89 571.6,-356.48 583,-350 597.8,-341.59 613.57,-331.34 626.88,-322.28"/>
<polygon fill="black" stroke="black" points="628.99,-325.08 635.24,-316.53 625.02,-319.31 628.99,-325.08"/>
<text text-anchor="middle" x="619" y="-338.8" font-family="Times,serif" font-size="14.00">LHS</text>
</g>
<!-- A_11 -->
<g id="node12" class="node">
<title>A_11</title>
<polygon fill="none" stroke="black" points="160,-192.5 160,-228.5 214,-228.5 214,-192.5 160,-192.5"/>
<text text-anchor="middle" x="187" y="-206.8" font-family="Times,serif" font-size="14.00">0</text>
</g>
<!-- A_7&#45;&gt;A_11 -->
<g id="edge22" class="edge">
<title>A_7&#45;&gt;A_11</title>
<path fill="none" stroke="black" d="M163.07,-280.1C167.25,-268.13 172.87,-252 177.62,-238.39"/>
<polygon fill="black" stroke="black" points="181.05,-239.18 181.04,-228.58 174.44,-236.87 181.05,-239.18"/>
<text text-anchor="middle" x="186.5" y="-250.8" font-family="Times,serif" font-size="14.00">RHS</text>
</g>
<!-- A_29 -->
<g id="node30" class="node">
<title>A_29</title>
<polygon fill="none" stroke="black" points="232,-192.5 232,-228.5 286,-228.5 286,-192.5 232,-192.5"/>
<text text-anchor="middle" x="259" y="-206.8" font-family="Times,serif" font-size="14.00">j</text>
</g>
<!-- A_7&#45;&gt;A_29 -->
<g id="edge21" class="edge">
<title>A_7&#45;&gt;A_29</title>
<path fill="none" stroke="black" d="M180.77,-280.24C188.32,-274.58 196.62,-268.15 204,-262 213.96,-253.7 224.53,-244.18 233.71,-235.66"/>
<polygon fill="black" stroke="black" points="236.15,-238.17 241.06,-228.78 231.37,-233.06 236.15,-238.17"/>
<text text-anchor="middle" x="234" y="-250.8" font-family="Times,serif" font-size="14.00">LHS</text>
</g>
<!-- A_40 -->
<g id="node41" class="node">
<title>A_40</title>
<polygon fill="none" stroke="black" points="704,-280.5 704,-316.5 758,-316.5 758,-280.5 704,-280.5"/>
<text text-anchor="middle" x="731" y="-294.8" font-family="Times,serif" font-size="14.00">out</text>
</g>
<!-- A_8&#45;&gt;A_40 -->
<g id="edge23" class="edge">
<title>A_8&#45;&gt;A_40</title>
<path fill="none" stroke="black" d="M644.6,-368.3C660.93,-355.3 683.54,-337.29 701.54,-322.96"/>
<polygon fill="black" stroke="black" points="703.8,-325.63 709.44,-316.67 699.44,-320.16 703.8,-325.63"/>
<text text-anchor="middle" x="711" y="-338.8" font-family="Times,serif" font-size="14.00">Argument</text>
</g>
<!-- A_15 -->
<g id="node16" class="node">
<title>A_15</title>
<polygon fill="none" stroke="black" points="304,-192.5 304,-228.5 358,-228.5 358,-192.5 304,-192.5"/>
<text text-anchor="middle" x="331" y="-206.8" font-family="Times,serif" font-size="14.00">20</text>
</g>
<!-- A_14&#45;&gt;A_15 -->
<g id="edge25" class="edge">
<title>A_14&#45;&gt;A_15</title>
<path fill="none" stroke="black" d="M260.81,-280.1C273.89,-267.31 291.84,-249.77 306.31,-235.63"/>
<polygon fill="black" stroke="black" points="308.81,-238.08 313.52,-228.58 303.92,-233.07 308.81,-238.08"/>
<text text-anchor="middle" x="322" y="-250.8" font-family="Times,serif" font-size="14.00">Operand B</text>
</g>
<!-- A_42 -->
<g id="node43" class="node">
<title>A_42</title>
<polygon fill="none" stroke="black" points="376,-192.5 376,-228.5 430,-228.5 430,-192.5 376,-192.5"/>
<text text-anchor="middle" x="403" y="-206.8" font-family="Times,serif" font-size="14.00">i</text>
</g>
<!-- A_14&#45;&gt;A_42 -->
<g id="edge24" class="edge">
<title>A_14&#45;&gt;A_42</title>
<path fill="none" stroke="black" d="M270.25,-283.48C273.16,-282.21 276.12,-281.02 279,-280 312.12,-268.24 325.6,-279.63 356,-262 367.06,-255.59 377.07,-245.74 384.98,-236.44"/>
<polygon fill="black" stroke="black" points="387.82,-238.5 391.36,-228.51 382.36,-234.11 387.82,-238.5"/>
<text text-anchor="middle" x="403" y="-250.8" font-family="Times,serif" font-size="14.00">Operand A</text>
</g>
<!-- A_22 -->
<g id="node23" class="node">
<title>A_22</title>
<polygon fill="none" stroke="black" points="448,-192.5 448,-228.5 530,-228.5 530,-192.5 448,-192.5"/>
<text text-anchor="middle" x="489" y="-206.8" font-family="Times,serif" font-size="14.00">Assignment</text>
</g>
<!-- A_16&#45;&gt;A_22 -->
<g id="edge27" class="edge">
<title>A_16&#45;&gt;A_22</title>
<path fill="none" stroke="blue" d="M342.22,-283.41C345.14,-282.16 348.11,-280.99 351,-280 387.95,-267.37 402.52,-280.33 437,-262 448.98,-255.63 460.09,-245.67 468.94,-236.27"/>
<polygon fill="blue" stroke="blue" points="471.75,-238.39 475.81,-228.6 466.54,-233.71 471.75,-238.39"/>
<text text-anchor="middle" x="471.5" y="-250.8" font-family="Times,serif" font-size="14.00">Loop</text>
</g>
<!-- A_31 -->
<g id="node32" class="node">
<title>A_31</title>
<polygon fill="none" stroke="black" points="548,-192.5 548,-228.5 602,-228.5 602,-192.5 548,-192.5"/>
<text text-anchor="middle" x="575" y="-206.8" font-family="Times,serif" font-size="14.00">&lt;</text>
</g>
<!-- A_16&#45;&gt;A_31 -->
<g id="edge26" class="edge">
<title>A_16&#45;&gt;A_31</title>
<path fill="none" stroke="black" d="M342.15,-283.18C345.08,-281.97 348.07,-280.88 351,-280 410.68,-262.15 431.12,-282.33 490,-262 508.85,-255.49 528.1,-244.49 543.51,-234.41"/>
<polygon fill="black" stroke="black" points="545.76,-237.11 552.1,-228.62 541.85,-231.31 545.76,-237.11"/>
<text text-anchor="middle" x="548.5" y="-250.8" font-family="Times,serif" font-size="14.00">Condition</text>
</g>
<!-- A_41 -->
<g id="node42" class="node">
<title>A_41</title>
<polygon fill="none" stroke="black" points="620,-192.5 620,-228.5 702,-228.5 702,-192.5 620,-192.5"/>
<text text-anchor="middle" x="661" y="-206.8" font-family="Times,serif" font-size="14.00">Assignment</text>
</g>
<!-- A_16&#45;&gt;A_41 -->
<g id="edge28" class="edge">
<title>A_16&#45;&gt;A_41</title>
<path fill="none" stroke="blue" d="M342.1,-283.02C345.05,-281.85 348.05,-280.8 351,-280 449.52,-253.22 483.03,-293.92 580,-262 598.42,-255.94 616.93,-244.86 631.59,-234.63"/>
<polygon fill="blue" stroke="blue" points="633.69,-237.43 639.75,-228.74 629.59,-231.75 633.69,-237.43"/>
<text text-anchor="middle" x="624.5" y="-250.8" font-family="Times,serif" font-size="14.00">Loop</text>
</g>
<!-- A_27 -->
<g id="node28" class="node">
<title>A_27</title>
<polygon fill="none" stroke="black" points="776,-280.5 776,-316.5 830,-316.5 830,-280.5 776,-280.5"/>
<text text-anchor="middle" x="803" y="-294.8" font-family="Times,serif" font-size="14.00">i</text>
</g>
<!-- A_17&#45;&gt;A_27 -->
<g id="edge29" class="edge">
<title>A_17&#45;&gt;A_27</title>
<path fill="none" stroke="black" d="M891.15,-368.43C882.32,-362.78 872.62,-356.31 864,-350 852.71,-341.73 840.76,-332.05 830.45,-323.39"/>
<polygon fill="black" stroke="black" points="832.47,-320.52 822.58,-316.71 827.94,-325.85 832.47,-320.52"/>
<text text-anchor="middle" x="877" y="-338.8" font-family="Times,serif" font-size="14.00">LHS</text>
</g>
<!-- A_32 -->
<g id="node33" class="node">
<title>A_32</title>
<polygon fill="none" stroke="black" points="848,-280.5 848,-316.5 902,-316.5 902,-280.5 848,-280.5"/>
<text text-anchor="middle" x="875" y="-294.8" font-family="Times,serif" font-size="14.00">0</text>
</g>
<!-- A_17&#45;&gt;A_32 -->
<g id="edge30" class="edge">
<title>A_17&#45;&gt;A_32</title>
<path fill="none" stroke="black" d="M910.1,-368.1C903.85,-355.89 895.4,-339.37 888.35,-325.59"/>
<polygon fill="black" stroke="black" points="891.41,-323.89 883.74,-316.58 885.18,-327.08 891.41,-323.89"/>
<text text-anchor="middle" x="912.5" y="-338.8" font-family="Times,serif" font-size="14.00">RHS</text>
</g>
<!-- A_20 -->
<g id="node21" class="node">
<title>A_20</title>
<polygon fill="none" stroke="black" points="920,-280.5 920,-316.5 974,-316.5 974,-280.5 920,-280.5"/>
<text text-anchor="middle" x="947" y="-294.8" font-family="Times,serif" font-size="14.00">+</text>
</g>
<!-- A_18&#45;&gt;A_20 -->
<g id="edge32" class="edge">
<title>A_18&#45;&gt;A_20</title>
<path fill="none" stroke="black" d="M1003.74,-368.27C998.68,-362.5 993.06,-356.01 988,-350 981.2,-341.92 973.89,-333.01 967.36,-324.94"/>
<polygon fill="black" stroke="black" points="969.89,-322.51 960.89,-316.92 964.45,-326.9 969.89,-322.51"/>
<text text-anchor="middle" x="1001.5" y="-338.8" font-family="Times,serif" font-size="14.00">RHS</text>
</g>
<!-- A_33 -->
<g id="node34" class="node">
<title>A_33</title>
<polygon fill="none" stroke="black" points="992,-280.5 992,-316.5 1046,-316.5 1046,-280.5 992,-280.5"/>
<text text-anchor="middle" x="1019" y="-294.8" font-family="Times,serif" font-size="14.00">out</text>
</g>
<!-- A_18&#45;&gt;A_33 -->
<g id="edge31" class="edge">
<title>A_18&#45;&gt;A_33</title>
<path fill="none" stroke="black" d="M1019,-368.1C1019,-356.25 1019,-340.32 1019,-326.79"/>
<polygon fill="black" stroke="black" points="1022.5,-326.58 1019,-316.58 1015.5,-326.58 1022.5,-326.58"/>
<text text-anchor="middle" x="1032" y="-338.8" font-family="Times,serif" font-size="14.00">LHS</text>
</g>
<!-- A_44 -->
<g id="node45" class="node">
<title>A_44</title>
<polygon fill="none" stroke="black" points="720,-192.5 720,-228.5 774,-228.5 774,-192.5 720,-192.5"/>
<text text-anchor="middle" x="747" y="-206.8" font-family="Times,serif" font-size="14.00">*</text>
</g>
<!-- A_19&#45;&gt;A_44 -->
<g id="edge34" class="edge">
<title>A_19&#45;&gt;A_44</title>
<path fill="none" stroke="black" d="M442.25,-282.19C445.19,-281.37 448.12,-280.63 451,-280 534.73,-261.71 560.46,-285.08 643,-262 666.7,-255.37 691.55,-243.51 711.01,-232.95"/>
<polygon fill="black" stroke="black" points="712.78,-235.97 719.83,-228.06 709.38,-229.85 712.78,-235.97"/>
<text text-anchor="middle" x="694.5" y="-250.8" font-family="Times,serif" font-size="14.00">RHS</text>
</g>
<!-- A_45 -->
<g id="node46" class="node">
<title>A_45</title>
<polygon fill="none" stroke="black" points="792,-192.5 792,-228.5 846,-228.5 846,-192.5 792,-192.5"/>
<text text-anchor="middle" x="819" y="-206.8" font-family="Times,serif" font-size="14.00">out</text>
</g>
<!-- A_19&#45;&gt;A_45 -->
<g id="edge33" class="edge">
<title>A_19&#45;&gt;A_45</title>
<path fill="none" stroke="black" d="M442.23,-282.11C445.17,-281.31 448.12,-280.59 451,-280 564.89,-256.58 599.4,-290.99 712,-262 736.84,-255.6 762.91,-243.43 783.09,-232.64"/>
<polygon fill="black" stroke="black" points="784.84,-235.68 791.93,-227.81 781.48,-229.54 784.84,-235.68"/>
<text text-anchor="middle" x="764" y="-250.8" font-family="Times,serif" font-size="14.00">LHS</text>
</g>
<!-- A_30 -->
<g id="node31" class="node">
<title>A_30</title>
<polygon fill="none" stroke="black" points="1008,-192.5 1008,-228.5 1062,-228.5 1062,-192.5 1008,-192.5"/>
<text text-anchor="middle" x="1035" y="-206.8" font-family="Times,serif" font-size="14.00">k</text>
</g>
<!-- A_20&#45;&gt;A_30 -->
<g id="edge36" class="edge">
<title>A_20&#45;&gt;A_30</title>
<path fill="none" stroke="black" d="M963.08,-280.41C972.52,-270.5 984.77,-257.88 996,-247 999.85,-243.27 1003.97,-239.4 1008.05,-235.63"/>
<polygon fill="black" stroke="black" points="1010.72,-237.93 1015.74,-228.6 1006,-232.77 1010.72,-237.93"/>
<text text-anchor="middle" x="1026" y="-250.8" font-family="Times,serif" font-size="14.00">Operand B</text>
</g>
<!-- A_36 -->
<g id="node37" class="node">
<title>A_36</title>
<polygon fill="none" stroke="black" points="1080,-192.5 1080,-228.5 1134,-228.5 1134,-192.5 1080,-192.5"/>
<text text-anchor="middle" x="1107" y="-206.8" font-family="Times,serif" font-size="14.00">out</text>
</g>
<!-- A_20&#45;&gt;A_36 -->
<g id="edge35" class="edge">
<title>A_20&#45;&gt;A_36</title>
<path fill="none" stroke="black" d="M974.26,-283.51C977.17,-282.24 980.12,-281.04 983,-280 1014.42,-268.63 1026.85,-278.35 1056,-262 1067.55,-255.52 1078.29,-245.72 1086.92,-236.48"/>
<polygon fill="black" stroke="black" points="1089.6,-238.72 1093.63,-228.92 1084.37,-234.07 1089.6,-238.72"/>
<text text-anchor="middle" x="1104" y="-250.8" font-family="Times,serif" font-size="14.00">Operand A</text>
</g>
<!-- A_23 -->
<g id="node24" class="node">
<title>A_23</title>
<polygon fill="none" stroke="black" points="1064,-280.5 1064,-316.5 1118,-316.5 1118,-280.5 1064,-280.5"/>
<text text-anchor="middle" x="1091" y="-294.8" font-family="Times,serif" font-size="14.00">2</text>
</g>
<!-- A_21&#45;&gt;A_23 -->
<g id="edge38" class="edge">
<title>A_21&#45;&gt;A_23</title>
<path fill="none" stroke="black" d="M1113.33,-368.1C1109.44,-356.13 1104.19,-340 1099.76,-326.39"/>
<polygon fill="black" stroke="black" points="1102.99,-325.01 1096.56,-316.58 1096.33,-327.18 1102.99,-325.01"/>
<text text-anchor="middle" x="1119.5" y="-338.8" font-family="Times,serif" font-size="14.00">RHS</text>
</g>
<!-- A_37 -->
<g id="node38" class="node">
<title>A_37</title>
<polygon fill="none" stroke="black" points="1136,-280.5 1136,-316.5 1190,-316.5 1190,-280.5 1136,-280.5"/>
<text text-anchor="middle" x="1163" y="-294.8" font-family="Times,serif" font-size="14.00">k</text>
</g>
<!-- A_21&#45;&gt;A_37 -->
<g id="edge37" class="edge">
<title>A_21&#45;&gt;A_37</title>
<path fill="none" stroke="black" d="M1127.9,-368.1C1134.15,-355.89 1142.6,-339.37 1149.65,-325.59"/>
<polygon fill="black" stroke="black" points="1152.82,-327.08 1154.26,-316.58 1146.59,-323.89 1152.82,-327.08"/>
<text text-anchor="middle" x="1156" y="-338.8" font-family="Times,serif" font-size="14.00">LHS</text>
</g>
<!-- A_25 -->
<g id="node26" class="node">
<title>A_25</title>
<polygon fill="none" stroke="black" points="316,-104.5 316,-140.5 370,-140.5 370,-104.5 316,-104.5"/>
<text text-anchor="middle" x="343" y="-118.8" font-family="Times,serif" font-size="14.00">+</text>
</g>
<!-- A_22&#45;&gt;A_25 -->
<g id="edge40" class="edge">
<title>A_22&#45;&gt;A_25</title>
<path fill="none" stroke="black" d="M447.52,-195C427.86,-187.79 406.78,-179.47 398,-174 386.48,-166.82 375.19,-157.07 365.86,-148.05"/>
<polygon fill="black" stroke="black" points="368.07,-145.31 358.52,-140.72 363.12,-150.26 368.07,-145.31"/>
<text text-anchor="middle" x="411.5" y="-162.8" font-family="Times,serif" font-size="14.00">RHS</text>
</g>
<!-- A_34 -->
<g id="node35" class="node">
<title>A_34</title>
<polygon fill="none" stroke="black" points="388,-104.5 388,-140.5 442,-140.5 442,-104.5 388,-104.5"/>
<text text-anchor="middle" x="415" y="-118.8" font-family="Times,serif" font-size="14.00">out</text>
</g>
<!-- A_22&#45;&gt;A_34 -->
<g id="edge39" class="edge">
<title>A_22&#45;&gt;A_34</title>
<path fill="none" stroke="black" d="M459.67,-192.42C452.29,-187.17 444.82,-180.93 439,-174 433.08,-166.95 428.25,-158.19 424.52,-149.95"/>
<polygon fill="black" stroke="black" points="427.72,-148.54 420.64,-140.66 421.26,-151.24 427.72,-148.54"/>
<text text-anchor="middle" x="452" y="-162.8" font-family="Times,serif" font-size="14.00">LHS</text>
</g>
<!-- A_26 -->
<g id="node27" class="node">
<title>A_26</title>
<polygon fill="none" stroke="black" points="864,-192.5 864,-228.5 918,-228.5 918,-192.5 864,-192.5"/>
<text text-anchor="middle" x="891" y="-206.8" font-family="Times,serif" font-size="14.00">+</text>
</g>
<!-- A_24&#45;&gt;A_26 -->
<g id="edge42" class="edge">
<title>A_24&#45;&gt;A_26</title>
<path fill="none" stroke="black" d="M542.23,-282.09C545.17,-281.3 548.12,-280.58 551,-280 613.2,-267.4 777.62,-286.88 836,-262 843.29,-258.89 856.15,-247.24 867.61,-235.91"/>
<polygon fill="black" stroke="black" points="870.3,-238.17 874.86,-228.61 865.33,-233.24 870.3,-238.17"/>
<text text-anchor="middle" x="867.5" y="-250.8" font-family="Times,serif" font-size="14.00">RHS</text>
</g>
<!-- A_47 -->
<g id="node48" class="node">
<title>A_47</title>
<polygon fill="none" stroke="black" points="936,-192.5 936,-228.5 990,-228.5 990,-192.5 936,-192.5"/>
<text text-anchor="middle" x="963" y="-206.8" font-family="Times,serif" font-size="14.00">i</text>
</g>
<!-- A_24&#45;&gt;A_47 -->
<g id="edge41" class="edge">
<title>A_24&#45;&gt;A_47</title>
<path fill="none" stroke="black" d="M542.22,-282.06C545.17,-281.27 548.11,-280.57 551,-280 623.92,-265.58 814.31,-284.97 885,-262 902.91,-256.18 920.71,-245.16 934.78,-234.9"/>
<polygon fill="black" stroke="black" points="937.16,-237.49 943.02,-228.66 932.93,-231.91 937.16,-237.49"/>
<text text-anchor="middle" x="927" y="-250.8" font-family="Times,serif" font-size="14.00">LHS</text>
</g>
<!-- A_28 -->
<g id="node29" class="node">
<title>A_28</title>
<polygon fill="none" stroke="black" points="275,-16.5 275,-52.5 329,-52.5 329,-16.5 275,-16.5"/>
<text text-anchor="middle" x="302" y="-30.8" font-family="Times,serif" font-size="14.00">j</text>
</g>
<!-- A_25&#45;&gt;A_28 -->
<g id="edge44" class="edge">
<title>A_25&#45;&gt;A_28</title>
<path fill="none" stroke="black" d="M317.1,-104.17C311.44,-99.04 306.19,-92.91 303,-86 299.72,-78.88 298.6,-70.58 298.55,-62.79"/>
<polygon fill="black" stroke="black" points="302.05,-62.79 299.02,-52.64 295.06,-62.46 302.05,-62.79"/>
<text text-anchor="middle" x="333" y="-74.8" font-family="Times,serif" font-size="14.00">Operand B</text>
</g>
<!-- A_38 -->
<g id="node39" class="node">
<title>A_38</title>
<polygon fill="none" stroke="black" points="358,-16.5 358,-52.5 412,-52.5 412,-16.5 358,-16.5"/>
<text text-anchor="middle" x="385" y="-30.8" font-family="Times,serif" font-size="14.00">out</text>
</g>
<!-- A_25&#45;&gt;A_38 -->
<g id="edge43" class="edge">
<title>A_25&#45;&gt;A_38</title>
<path fill="none" stroke="black" d="M353.12,-104.36C356.4,-98.59 359.97,-92.08 363,-86 366.84,-78.3 370.69,-69.77 374.08,-61.94"/>
<polygon fill="black" stroke="black" points="377.4,-63.1 378.09,-52.53 370.95,-60.36 377.4,-63.1"/>
<text text-anchor="middle" x="399" y="-74.8" font-family="Times,serif" font-size="14.00">Operand A</text>
</g>
<!-- A_46 -->
<g id="node47" class="node">
<title>A_46</title>
<polygon fill="none" stroke="black" points="892,-104.5 892,-140.5 946,-140.5 946,-104.5 892,-104.5"/>
<text text-anchor="middle" x="919" y="-118.8" font-family="Times,serif" font-size="14.00">1</text>
</g>
<!-- A_26&#45;&gt;A_46 -->
<g id="edge46" class="edge">
<title>A_26&#45;&gt;A_46</title>
<path fill="none" stroke="black" d="M896.67,-192.1C900.56,-180.13 905.81,-164 910.24,-150.39"/>
<polygon fill="black" stroke="black" points="913.67,-151.18 913.44,-140.58 907.01,-149.01 913.67,-151.18"/>
<text text-anchor="middle" x="936" y="-162.8" font-family="Times,serif" font-size="14.00">Operand B</text>
</g>
<!-- A_49 -->
<g id="node50" class="node">
<title>A_49</title>
<polygon fill="none" stroke="black" points="974,-104.5 974,-140.5 1028,-140.5 1028,-104.5 974,-104.5"/>
<text text-anchor="middle" x="1001" y="-118.8" font-family="Times,serif" font-size="14.00">i</text>
</g>
<!-- A_26&#45;&gt;A_49 -->
<g id="edge45" class="edge">
<title>A_26&#45;&gt;A_49</title>
<path fill="none" stroke="black" d="M918.05,-196.15C921.06,-194.72 924.09,-193.32 927,-192 945.88,-183.47 954.27,-187.48 970,-174 977.69,-167.41 984.05,-158.43 988.96,-149.86"/>
<polygon fill="black" stroke="black" points="992.14,-151.34 993.72,-140.87 985.95,-148.07 992.14,-151.34"/>
<text text-anchor="middle" x="1012" y="-162.8" font-family="Times,serif" font-size="14.00">Operand A</text>
</g>
<!-- A_35 -->
<g id="node36" class="node">
<title>A_35</title>
<polygon fill="none" stroke="black" points="460,-104.5 460,-140.5 514,-140.5 514,-104.5 460,-104.5"/>
<text text-anchor="middle" x="487" y="-118.8" font-family="Times,serif" font-size="14.00">10</text>
</g>
<!-- A_31&#45;&gt;A_35 -->
<g id="edge48" class="edge">
<title>A_31&#45;&gt;A_35</title>
<path fill="none" stroke="black" d="M547.83,-196.3C527.08,-186.21 502.03,-174.03 502,-174 496.43,-167.43 492.92,-158.85 490.72,-150.64"/>
<polygon fill="black" stroke="black" points="494.09,-149.65 488.57,-140.61 487.25,-151.12 494.09,-149.65"/>
<text text-anchor="middle" x="532" y="-162.8" font-family="Times,serif" font-size="14.00">Operand B</text>
</g>
<!-- A_50 -->
<g id="node51" class="node">
<title>A_50</title>
<polygon fill="none" stroke="black" points="532,-104.5 532,-140.5 586,-140.5 586,-104.5 532,-104.5"/>
<text text-anchor="middle" x="559" y="-118.8" font-family="Times,serif" font-size="14.00">j</text>
</g>
<!-- A_31&#45;&gt;A_50 -->
<g id="edge47" class="edge">
<title>A_31&#45;&gt;A_50</title>
<path fill="none" stroke="black" d="M571.76,-192.1C569.56,-180.25 566.59,-164.32 564.08,-150.79"/>
<polygon fill="black" stroke="black" points="567.45,-149.78 562.18,-140.58 560.57,-151.06 567.45,-149.78"/>
<text text-anchor="middle" x="597" y="-162.8" font-family="Times,serif" font-size="14.00">Operand A</text>
</g>
<!-- A_43 -->
<g id="node44" class="node">
<title>A_43</title>
<polygon fill="none" stroke="black" points="604,-104.5 604,-140.5 658,-140.5 658,-104.5 604,-104.5"/>
<text text-anchor="middle" x="631" y="-118.8" font-family="Times,serif" font-size="14.00">+</text>
</g>
<!-- A_41&#45;&gt;A_43 -->
<g id="edge50" class="edge">
<title>A_41&#45;&gt;A_43</title>
<path fill="none" stroke="black" d="M654.93,-192.1C650.75,-180.13 645.13,-164 640.38,-150.39"/>
<polygon fill="black" stroke="black" points="643.56,-148.87 636.96,-140.58 636.95,-151.18 643.56,-148.87"/>
<text text-anchor="middle" x="660.5" y="-162.8" font-family="Times,serif" font-size="14.00">RHS</text>
</g>
<!-- A_52 -->
<g id="node53" class="node">
<title>A_52</title>
<polygon fill="none" stroke="black" points="676,-104.5 676,-140.5 730,-140.5 730,-104.5 676,-104.5"/>
<text text-anchor="middle" x="703" y="-118.8" font-family="Times,serif" font-size="14.00">j</text>
</g>
<!-- A_41&#45;&gt;A_52 -->
<g id="edge49" class="edge">
<title>A_41&#45;&gt;A_52</title>
<path fill="none" stroke="black" d="M669.5,-192.1C675.46,-179.89 683.53,-163.37 690.26,-149.59"/>
<polygon fill="black" stroke="black" points="693.41,-151.11 694.66,-140.58 687.12,-148.03 693.41,-151.11"/>
<text text-anchor="middle" x="697" y="-162.8" font-family="Times,serif" font-size="14.00">LHS</text>
</g>
<!-- A_53 -->
<g id="node54" class="node">
<title>A_53</title>
<polygon fill="none" stroke="black" points="562,-16.5 562,-52.5 616,-52.5 616,-16.5 562,-16.5"/>
<text text-anchor="middle" x="589" y="-30.8" font-family="Times,serif" font-size="14.00">1</text>
</g>
<!-- A_43&#45;&gt;A_53 -->
<g id="edge52" class="edge">
<title>A_43&#45;&gt;A_53</title>
<path fill="none" stroke="black" d="M603.7,-106.24C596.63,-100.84 589.91,-94.06 586,-86 582.58,-78.94 581.91,-70.65 582.49,-62.86"/>
<polygon fill="black" stroke="black" points="585.99,-63.08 583.92,-52.69 579.06,-62.11 585.99,-63.08"/>
<text text-anchor="middle" x="616" y="-74.8" font-family="Times,serif" font-size="14.00">Operand B</text>
</g>
<!-- A_54 -->
<g id="node55" class="node">
<title>A_54</title>
<polygon fill="none" stroke="black" points="645,-16.5 645,-52.5 699,-52.5 699,-16.5 645,-16.5"/>
<text text-anchor="middle" x="672" y="-30.8" font-family="Times,serif" font-size="14.00">j</text>
</g>
<!-- A_43&#45;&gt;A_54 -->
<g id="edge51" class="edge">
<title>A_43&#45;&gt;A_54</title>
<path fill="none" stroke="black" d="M640.56,-104.31C643.67,-98.54 647.07,-92.04 650,-86 653.69,-78.38 657.47,-69.98 660.82,-62.26"/>
<polygon fill="black" stroke="black" points="664.09,-63.52 664.81,-52.95 657.65,-60.77 664.09,-63.52"/>
<text text-anchor="middle" x="686" y="-74.8" font-family="Times,serif" font-size="14.00">Operand A</text>
</g>
<!-- A_48 -->
<g id="node49" class="node">
<title>A_48</title>
<polygon fill="none" stroke="black" points="748,-104.5 748,-140.5 802,-140.5 802,-104.5 748,-104.5"/>
<text text-anchor="middle" x="775" y="-118.8" font-family="Times,serif" font-size="14.00">out</text>
</g>
<!-- A_44&#45;&gt;A_48 -->
<g id="edge53" class="edge">
<title>A_44&#45;&gt;A_48</title>
<path fill="none" stroke="black" d="M747.2,-192.25C747.77,-182.29 749.27,-169.67 753,-159 754.1,-155.85 755.52,-152.69 757.1,-149.62"/>
<polygon fill="black" stroke="black" points="760.23,-151.2 762.19,-140.79 754.16,-147.7 760.23,-151.2"/>
<text text-anchor="middle" x="783" y="-162.8" font-family="Times,serif" font-size="14.00">Operand A</text>
</g>
<!-- A_51 -->
<g id="node52" class="node">
<title>A_51</title>
<polygon fill="none" stroke="black" points="820,-104.5 820,-140.5 874,-140.5 874,-104.5 820,-104.5"/>
<text text-anchor="middle" x="847" y="-118.8" font-family="Times,serif" font-size="14.00">2</text>
</g>
<!-- A_44&#45;&gt;A_51 -->
<g id="edge54" class="edge">
<title>A_44&#45;&gt;A_51</title>
<path fill="none" stroke="black" d="M774.02,-195.75C790.75,-187.09 809.67,-177.01 813,-174 820.59,-167.12 827.31,-158.21 832.73,-149.8"/>
<polygon fill="black" stroke="black" points="835.89,-151.34 838.08,-140.98 829.9,-147.71 835.89,-151.34"/>
<text text-anchor="middle" x="856" y="-162.8" font-family="Times,serif" font-size="14.00">Operand B</text>
</g>
</g>
</svg>
