<svg aria-label="Email" role="img" version="1.1" viewBox="0 0 512 512" xmlns="http://www.w3.org/2000/svg">
<g id="icon">
<path d="m119 128c-7.7 0-15 2.1-21 5.8l152 151 0.23 0.26c3.3 3.7 7.7 3.7 11 0l0.23-0.26 152-151c-6.1-3.6-13-5.8-21-5.8h-274zm-35 20c-3.7 6.2-5.8 13-5.8 21v174c0 7.7 2.2 15 5.8 21l109-108-109-108zm344 0-109 108 109 108c3.7-6.2 5.8-13 5.8-21v-174c0-7.7-2.2-15-5.8-21zm-221 122-109 108c6.1 3.6 13 5.8 21 5.8h274c7.7 0 15-2.1 21-5.8l-109-108-29 29 0.48-0.51c-11 12-30 12-41 0l0.48 0.51-29-29z"/>
</g>
</svg>
